<svg xmlns="http://www.w3.org/2000/svg" width="119" height="28" viewBox="0 0 119 28" fill="none">
<g clip-path="url(#clip0_126_407)">
<path d="M70.5445 11.0505C72.3745 11.0505 74.1075 12.1514 74.474 14.5296H66.3239C66.6648 12.4429 68.2523 11.0505 70.5458 11.0505M74.2126 18.0471C73.59 19.0011 72.3866 19.735 70.7399 19.735C68.4692 19.735 66.7376 18.5122 66.3225 16.3526H76.5479C76.5978 16.0426 76.622 15.7313 76.6234 15.4173C76.6234 12.0587 74.2355 9.08301 70.5472 9.08301C66.8589 9.08301 64.1543 11.8427 64.1543 15.3934C64.1543 18.9441 66.7659 21.7038 70.6941 21.7038C73.1345 21.7038 74.9888 20.624 76.0628 18.9891L74.2153 18.0471H74.2126Z" fill="#006BFF"/>
<path d="M63.1468 3.87695H61.0244V21.3919H63.1468V3.87695Z" fill="#006BFF"/>
<path d="M88.4327 14.0268V21.3918H86.3089V14.146C86.3089 12.1786 85.1621 11.0749 83.2836 11.0749C81.4051 11.0749 79.7449 12.2037 79.7449 15.0337V21.3904H77.6211V9.39631H79.7449V11.124C80.6477 9.70765 81.9899 9.08496 83.7013 9.08496C86.5555 9.08496 88.4353 10.9557 88.4353 14.0268" fill="#006BFF"/>
<path d="M100.139 15.3928C100.139 12.9458 98.2592 11.0975 95.7959 11.0975C93.3325 11.0975 91.4756 12.9458 91.4756 15.3928C91.4756 17.8399 93.3554 19.6881 95.7959 19.6881C98.2363 19.6881 100.139 17.8399 100.139 15.3928ZM102.263 3.87695V21.3919H100.14V19.3277C99.1635 20.7957 97.603 21.7045 95.5277 21.7045C92.1359 21.7045 89.3545 18.9448 89.3545 15.3941C89.3545 11.8435 92.1359 9.08373 95.5277 9.08373C97.6016 9.08373 99.1635 9.99524 100.14 11.4592V3.87695H102.263Z" fill="#006BFF"/>
<path d="M106.097 3.87695H103.975V21.3919H106.097V3.87695Z" fill="#006BFF"/>
<path d="M57.241 15.3924C57.241 12.9454 55.3625 11.0972 52.8965 11.0972C50.4304 11.0972 48.5775 12.9454 48.5775 15.3924C48.5775 17.8395 50.4574 19.6877 52.8965 19.6877C55.3356 19.6877 57.241 17.8395 57.241 15.3924ZM59.3648 9.39603V21.3902H57.241V19.326C56.264 20.794 54.7036 21.7028 52.6296 21.7028C49.2378 21.7028 46.4551 18.9431 46.4551 15.3924C46.4551 11.8418 49.2378 9.08203 52.6296 9.08203C54.7036 9.08203 56.2654 9.99355 57.241 11.4575V9.39603H59.3648Z" fill="#006BFF"/>
<path d="M43.3057 19.082C39.8816 20.3247 36.0828 18.6024 34.8201 15.2359C33.5561 11.8707 35.3079 8.13453 38.7321 6.89312C40.9354 6.09422 43.4041 6.50493 45.218 7.97157C45.5912 8.27365 45.9281 8.61679 46.2246 8.99306L48.0613 7.67215C45.0765 3.83662 39.4935 3.10529 35.5923 6.0399C31.691 8.97451 30.9472 14.4622 33.932 18.299C36.9169 22.1345 42.4999 22.8659 46.4011 19.9313C46.4132 19.9207 46.4267 19.9114 46.4402 19.9021L45.218 18.0022C44.6466 18.4646 44.0011 18.8303 43.3084 19.0847" fill="#006BFF"/>
<path d="M116.346 9.39586V16.2031C116.346 18.405 115.044 19.7988 113.055 19.7988C111.066 19.7988 109.627 18.405 109.627 16.2031V9.39586H107.479V16.0004C107.479 19.461 109.672 21.7066 113.055 21.7066C115.98 21.7066 116.437 19.8876 116.437 19.8412V22.2909C116.437 24.7181 115.363 26.088 113.123 26.088C111.469 26.096 110.063 24.8969 109.839 23.2846L107.919 23.9457C108.485 26.3238 110.643 28.0025 113.126 27.9985C116.6 27.9985 118.5 25.7502 118.5 22.2909V9.39453H116.346V9.39586Z" fill="#006BFF"/>
<path d="M17.7857 16.3848C16.9704 17.0962 15.9516 17.9813 14.1041 17.9813H12.9991C11.6623 17.9813 10.4455 17.5043 9.57628 16.6392C8.72596 15.7926 8.25835 14.6346 8.25835 13.3773V11.8921C8.25835 10.6348 8.72731 9.47686 9.57628 8.63158C10.4455 7.76644 11.6623 7.28948 12.9991 7.28948H14.1041C15.9543 7.28948 16.9704 8.1745 17.7857 8.88596C18.6333 9.61994 19.3637 10.2612 21.3123 10.2612C21.6101 10.2612 21.9065 10.2387 22.2003 10.1923L22.1936 10.1751C22.0777 9.89022 21.9402 9.61332 21.7839 9.34702L20.4808 7.12917C19.2855 5.09416 17.0769 3.84082 14.6863 3.84082H12.0801C9.68947 3.84082 7.4808 5.09416 6.28551 7.12917L4.98241 9.34702C3.78711 11.382 3.78711 13.89 4.98241 15.9264L6.28551 18.1442C7.4808 20.1792 9.68947 21.4326 12.0801 21.4326H14.6863C17.0755 21.4326 19.2855 20.1792 20.4808 18.1442L21.7839 15.929C21.9402 15.6627 22.0763 15.3871 22.1936 15.101L22.2003 15.0851C21.9065 15.0361 21.6101 15.0122 21.3123 15.0109C19.3637 15.0109 18.6333 15.6481 17.7857 16.3861" fill="#006BFF"/>
<path d="M14.1036 8.63379H12.9986C10.9637 8.63379 9.62695 10.062 9.62695 11.8917V13.3769C9.62695 15.2065 10.9637 16.6347 12.9986 16.6347H14.1036C17.0682 16.6347 16.8351 13.663 21.3117 13.663C21.7362 13.663 22.1594 13.7001 22.5758 13.777C22.7119 13.0218 22.7119 12.2481 22.5758 11.4916C22.1594 11.5671 21.7362 11.6068 21.3117 11.6055C16.8338 11.6055 17.0682 8.63379 14.1036 8.63379Z" fill="#006BFF"/>
<path d="M25.147 14.863C24.3843 14.3145 23.5057 13.9422 22.5759 13.7766V13.7991C22.495 14.2363 22.371 14.6669 22.2026 15.0789C22.9707 15.1955 23.6997 15.4909 24.3291 15.9401C24.3291 15.9454 24.325 15.9533 24.3237 15.96C22.4559 21.906 16.0375 25.2381 9.98956 23.4018C3.94167 21.5655 0.551179 15.2551 2.42026 9.30906C4.28799 3.363 10.7051 0.0309309 16.753 1.86721C20.3726 2.96554 23.2052 5.75176 24.3223 9.30906C24.3223 9.31569 24.3264 9.32364 24.3277 9.32893C23.6984 9.77807 22.9694 10.0722 22.2012 10.1888C22.3697 10.6035 22.4937 11.0327 22.5745 11.4713C22.5745 11.4779 22.5745 11.4845 22.5745 11.4925C23.5043 11.3255 24.383 10.9546 25.1457 10.4061C25.8788 9.87213 25.7373 9.26931 25.6254 8.91292C23.5367 2.24745 16.346 -1.49003 9.56508 0.564857C2.78545 2.61975 -1.01739 9.69063 1.07404 16.3561C3.16547 23.0216 10.3561 26.759 17.1357 24.7042C21.196 23.4733 24.3749 20.348 25.6281 16.3561C25.74 15.9997 25.8815 15.3969 25.1484 14.863" fill="#006BFF"/>
<path d="M22.1988 10.1879C21.9064 10.2356 21.6086 10.2608 21.3107 10.2621C19.3622 10.2621 18.6318 9.6235 17.7855 8.88687C16.9689 8.17408 15.9528 7.28906 14.1026 7.28906H12.9976C11.6608 7.28906 10.4453 7.76734 9.57476 8.63249C8.72444 9.47909 8.25684 10.6357 8.25684 11.893V13.3795C8.25684 14.6368 8.72444 15.7935 9.57476 16.6401C10.4453 17.5052 11.6595 17.9822 12.9976 17.9822H14.1026C15.9515 17.9822 16.9675 17.0971 17.7855 16.3857C18.6318 15.6517 19.3622 15.0105 21.3107 15.0105C21.6086 15.0105 21.905 15.033 22.1988 15.0794C22.3672 14.666 22.4926 14.2367 22.5721 13.7995V13.777C22.1557 13.7015 21.7312 13.6631 21.3067 13.6631C16.8287 13.6631 17.0632 16.6361 14.0986 16.6361H12.9935C10.9587 16.6361 9.62192 15.2065 9.62192 13.3782V11.889C9.62192 10.0607 10.9587 8.63117 12.9935 8.63117H14.0986C17.0632 8.63117 16.8301 11.6029 21.3067 11.6029C21.7312 11.6029 22.1543 11.5658 22.5721 11.4889V11.4691C22.4912 11.0305 22.3672 10.5999 22.1988 10.1866" fill="#0AE8F0"/>
<path d="M22.1988 10.1879C21.9064 10.2356 21.6086 10.2608 21.3107 10.2621C19.3622 10.2621 18.6318 9.6235 17.7855 8.88687C16.9689 8.17408 15.9528 7.28906 14.1026 7.28906H12.9976C11.6608 7.28906 10.4453 7.76734 9.57476 8.63249C8.72444 9.47909 8.25684 10.6357 8.25684 11.893V13.3795C8.25684 14.6368 8.72444 15.7935 9.57476 16.6401C10.4453 17.5052 11.6595 17.9822 12.9976 17.9822H14.1026C15.9515 17.9822 16.9675 17.0971 17.7855 16.3857C18.6318 15.6517 19.3622 15.0105 21.3107 15.0105C21.6086 15.0105 21.905 15.033 22.1988 15.0794C22.3672 14.666 22.4926 14.2367 22.5721 13.7995V13.777C22.1557 13.7015 21.7312 13.6631 21.3067 13.6631C16.8287 13.6631 17.0632 16.6361 14.0986 16.6361H12.9935C10.9587 16.6361 9.62192 15.2065 9.62192 13.3782V11.889C9.62192 10.0607 10.9587 8.63117 12.9935 8.63117H14.0986C17.0632 8.63117 16.8301 11.6029 21.3067 11.6029C21.7312 11.6029 22.1543 11.5658 22.5721 11.4889V11.4691C22.4912 11.0305 22.3672 10.5999 22.1988 10.1866" fill="#0AE8F0"/>
</g>
<defs>
<clipPath id="clip0_126_407">
<rect width="118" height="28" fill="white" transform="translate(0.5)"/>
</clipPath>
</defs>
</svg>