<svg width="24" height="24" fill="none" xmlns="http://www.w3.org/2000/svg"><path d="M0 12C0 5.373 5.373 0 12 0s12 5.373 12 12-5.373 12-12 12S0 18.627 0 12Z" fill="#fff"></path><path fill-rule="evenodd" clip-rule="evenodd" d="M18.66 12.16c0-.497-.044-.975-.127-1.433H11.94v2.708h3.767a3.22 3.22 0 0 1-1.396 2.113v1.756h2.262c1.323-1.218 2.087-3.013 2.087-5.145Z" fill="#4285F4"></path><path fill-rule="evenodd" clip-rule="evenodd" d="M11.94 19c1.89 0 3.475-.627 4.633-1.696l-2.263-1.756c-.626.42-1.428.668-2.37.668-1.823 0-3.366-1.231-3.917-2.886H5.685v1.814A6.997 6.997 0 0 0 11.94 19Z" fill="#34A853"></path><path fill-rule="evenodd" clip-rule="evenodd" d="M8.023 13.33c-.14-.42-.22-.869-.22-1.33 0-.461.08-.91.22-1.33V8.856H5.685a6.997 6.997 0 0 0 0 6.288l2.338-1.814Z" fill="#FBBC05"></path><path fill-rule="evenodd" clip-rule="evenodd" d="M11.94 7.784c1.028 0 1.95.353 2.676 1.047l2.008-2.008C15.41 5.693 13.827 5 11.94 5a6.997 6.997 0 0 0-6.255 3.856l2.338 1.814c.55-1.655 2.094-2.886 3.917-2.886Z" fill="#EA4335"></path></svg>