<svg xmlns="http://www.w3.org/2000/svg" width="16" height="16" viewBox="0 0 16 16" fill="none">
<path d="M8.00016 14.6663C7.07794 14.6663 6.21127 14.4913 5.40016 14.1413C4.58905 13.7913 3.8835 13.3163 3.2835 12.7163C2.6835 12.1163 2.2085 11.4108 1.8585 10.5997C1.5085 9.78856 1.3335 8.9219 1.3335 7.99967C1.3335 7.07745 1.5085 6.21079 1.8585 5.39967C2.2085 4.58856 2.6835 3.88301 3.2835 3.28301C3.8835 2.68301 4.58905 2.20801 5.40016 1.85801C6.21127 1.50801 7.07794 1.33301 8.00016 1.33301C8.92238 1.33301 9.78905 1.50801 10.6002 1.85801C11.4113 2.20801 12.1168 2.68301 12.7168 3.28301C13.3168 3.88301 13.7918 4.58856 14.1418 5.39967C14.4918 6.21079 14.6668 7.07745 14.6668 7.99967C14.6668 8.9219 14.4918 9.78856 14.1418 10.5997C13.7918 11.4108 13.3168 12.1163 12.7168 12.7163C12.1168 13.3163 11.4113 13.7913 10.6002 14.1413C9.78905 14.4913 8.92238 14.6663 8.00016 14.6663ZM7.3335 13.2997V11.9997C6.96683 11.9997 6.65294 11.8691 6.39183 11.608C6.13072 11.3469 6.00016 11.033 6.00016 10.6663V9.99967L2.80016 6.79967C2.76683 6.99967 2.73627 7.19967 2.7085 7.39967C2.68072 7.59967 2.66683 7.79967 2.66683 7.99967C2.66683 9.34412 3.1085 10.5219 3.99183 11.533C4.87516 12.5441 5.98905 13.133 7.3335 13.2997ZM11.9335 11.5997C12.3891 11.0997 12.7363 10.5413 12.9752 9.92467C13.2141 9.30801 13.3335 8.66634 13.3335 7.99967C13.3335 6.91079 13.0307 5.91634 12.4252 5.01634C11.8196 4.11634 11.0113 3.46634 10.0002 3.06634V3.33301C10.0002 3.69967 9.86961 4.01356 9.6085 4.27467C9.34738 4.53579 9.0335 4.66634 8.66683 4.66634H7.3335V5.99967C7.3335 6.18856 7.26961 6.3469 7.14183 6.47467C7.01405 6.60245 6.85572 6.66634 6.66683 6.66634H5.3335V7.99967H9.3335C9.52238 7.99967 9.68072 8.06356 9.8085 8.19134C9.93627 8.31912 10.0002 8.47745 10.0002 8.66634V10.6663H10.6668C10.9557 10.6663 11.2168 10.7525 11.4502 10.9247C11.6835 11.0969 11.8446 11.3219 11.9335 11.5997Z" fill="#122138"/>
</svg>